<?xml version="1.0" standalone="no"?>
<!DOCTYPE svg PUBLIC "-//W3C//DTD SVG 20010904//EN"
 "http://www.w3.org/TR/2001/REC-SVG-20010904/DTD/svg10.dtd">
<svg version="1.0" xmlns="http://www.w3.org/2000/svg"
 width="847.000000pt" height="720.000000pt" viewBox="0 0 847.000000 720.000000"
 preserveAspectRatio="xMidYMid meet">

<g transform="translate(0.000000,720.000000) scale(0.100000,-0.100000)"
fill="#000000" stroke="none">
<path d="M5852 6647 c-24 -29 -157 -187 -296 -352 -139 -165 -497 -592 -796
-950 -298 -357 -545 -651 -549 -652 -3 -1 -285 341 -626 759 -730 895 -990
1210 -1009 1222 -21 14 -96 -38 -96 -65 0 -20 -3 -21 -83 -13 -301 32 -519
-32 -692 -201 -110 -108 -185 -236 -350 -600 -111 -244 -180 -376 -257 -491
-118 -178 -261 -285 -423 -319 -83 -17 -258 -19 -355 -4 -38 6 -81 9 -95 7
-25 -3 -25 -3 22 -63 195 -248 1345 -1666 1364 -1682 19 -15 140 -41 226 -49
41 -4 99 -2 139 5 78 14 271 74 326 102 54 28 197 173 251 255 55 84 149 270
242 479 232 523 392 712 660 780 94 24 280 25 400 1 l90 -18 88 -109 89 -109
-40 -48 c-21 -26 -205 -247 -409 -492 -481 -579 -663 -802 -663 -810 0 -14 93
-68 107 -63 7 3 255 295 550 649 294 354 539 644 543 644 9 0 -13 26 609 -738
266 -326 489 -596 497 -599 16 -6 104 47 104 62 0 6 -89 121 -197 255 -187
233 -880 1087 -910 1121 -12 15 -2 31 91 142 l105 125 88 16 c255 47 490 -1
645 -131 141 -118 242 -286 433 -718 155 -352 220 -463 347 -588 86 -84 131
-110 253 -150 135 -44 200 -57 281 -57 110 0 250 27 279 54 31 28 1271 1526
1375 1661 24 31 40 58 37 61 -3 4 -43 1 -88 -5 -187 -25 -385 -7 -496 45 -207
98 -326 266 -556 780 -212 474 -300 604 -485 713 -164 97 -336 125 -584 94
-44 -5 -48 -4 -48 16 0 13 -15 32 -42 51 -22 16 -44 30 -47 29 -3 0 -26 -24
-49 -52z m486 -67 c51 -6 113 -15 137 -21 40 -10 43 -13 34 -31 -18 -34 -251
-319 -264 -324 -7 -3 -44 4 -82 16 -80 26 -305 38 -391 22 -29 -5 -54 -6 -57
-2 -5 8 126 173 194 243 25 27 60 57 77 67 58 36 187 47 352 30z m-3963 -10
c113 -17 140 -39 328 -273 26 -33 47 -63 47 -69 0 -7 -16 -7 -47 -2 -27 5
-109 9 -183 8 -108 -1 -152 -5 -218 -24 -47 -13 -87 -19 -92 -14 -23 26 -241
307 -250 324 -13 24 -10 26 80 39 154 23 233 25 335 11z m-714 -432 c30 -35
86 -101 124 -148 38 -47 72 -89 75 -93 4 -5 63 47 131 116 121 120 197 175
225 159 32 -18 264 -310 264 -332 0 -4 -19 -20 -42 -35 -91 -59 -148 -108
-213 -186 l-69 -81 -30 34 c-17 19 -80 94 -139 166 -91 111 -111 131 -123 121
-8 -7 -60 -104 -114 -216 -55 -111 -102 -203 -105 -203 -8 0 -57 57 -163 189
-89 110 -93 118 -89 157 6 58 182 414 205 414 5 0 33 -28 63 -62z m5296 -87
c40 -79 84 -174 99 -212 l27 -69 -28 -42 c-31 -47 -204 -257 -229 -277 -14
-12 -22 -2 -62 85 -71 154 -143 297 -159 318 -19 25 -20 24 -167 -151 -65 -78
-123 -145 -128 -148 -5 -3 -40 32 -78 77 -72 85 -109 119 -197 178 -27 18 -52
35 -54 36 -8 7 49 86 140 194 135 161 128 156 176 132 68 -35 215 -176 277
-264 9 -12 17 -20 19 -17 93 123 266 311 282 306 5 -2 42 -68 82 -146z m-1094
-165 c73 -17 85 -28 68 -58 -11 -21 -152 -196 -221 -274 l-30 -34 -101 20
c-114 24 -234 29 -357 17 -79 -8 -83 -8 -73 10 5 10 66 86 135 170 l125 151
73 10 c93 14 305 7 381 -12z m-2882 -8 l70 -11 108 -131 c59 -72 120 -148 136
-170 l29 -38 -84 8 c-123 13 -262 7 -368 -14 l-93 -20 -68 82 c-126 151 -191
237 -191 252 0 31 103 51 273 53 65 0 150 -4 188 -11z m3377 -446 c27 -48 74
-141 104 -207 30 -65 59 -120 64 -122 6 -2 70 67 143 153 76 89 137 152 142
147 5 -5 36 -67 69 -138 80 -173 141 -285 154 -284 6 0 69 70 140 155 70 85
132 154 136 154 5 0 31 -28 58 -62 68 -86 145 -156 220 -202 53 -34 60 -41 50
-55 -7 -9 -45 -54 -84 -101 -156 -188 -175 -214 -161 -227 33 -34 266 -59 409
-46 47 5 91 7 97 5 15 -5 -25 -58 -149 -198 -56 -63 -116 -122 -133 -131 -68
-35 -390 -27 -482 11 -35 15 -36 16 -21 43 8 15 54 78 103 138 49 61 101 126
116 147 l28 36 -56 38 c-77 50 -154 122 -216 200 -28 36 -57 64 -64 62 -6 -2
-70 -73 -141 -158 -71 -85 -134 -154 -139 -155 -6 0 -57 96 -115 213 -57 117
-109 211 -115 209 -5 -2 -56 -57 -112 -122 -120 -140 -164 -184 -170 -170 -39
89 -211 420 -218 419 -5 0 -70 -74 -144 -164 l-135 -163 -39 49 c-67 82 -194
200 -237 219 -56 25 -52 48 23 142 113 144 191 233 203 233 6 0 39 -18 73 -40
65 -42 149 -121 218 -205 l42 -50 28 32 c15 18 77 91 137 162 61 71 113 128
117 125 5 -2 30 -44 57 -92z m-4054 -79 c70 -84 131 -153 135 -153 5 0 33 30
62 66 60 75 155 158 228 197 l49 27 104 -128 c116 -139 158 -198 158 -217 0
-7 -24 -27 -54 -44 -55 -31 -162 -129 -229 -210 -20 -24 -40 -40 -47 -36 -6 4
-67 77 -136 163 -69 87 -130 158 -135 160 -4 2 -56 -94 -115 -212 -59 -119
-111 -216 -115 -216 -5 0 -65 67 -133 149 -69 82 -130 152 -135 156 -6 3 -57
-91 -115 -210 -58 -118 -110 -215 -116 -215 -8 0 -95 101 -241 280 l-36 45
-119 -121 c-71 -71 -138 -130 -166 -145 -27 -13 -48 -30 -48 -38 0 -7 46 -72
102 -145 142 -183 138 -177 138 -197 0 -23 -40 -35 -160 -50 -99 -12 -259 -6
-322 11 -26 8 -57 33 -108 87 -80 86 -200 233 -200 246 0 4 69 5 152 1 123 -5
171 -3 242 10 114 22 130 30 115 57 -6 12 -65 88 -131 170 -66 83 -119 151
-117 153 2 2 36 24 74 49 87 56 118 83 195 175 33 39 65 72 70 72 5 0 66 -70
136 -155 70 -85 131 -155 135 -155 15 0 60 79 146 260 l84 175 21 -25 c127
-156 244 -290 253 -290 6 0 48 75 94 166 87 177 138 261 151 247 4 -4 64 -77
134 -160z m2998 -162 c37 -12 70 -26 73 -30 3 -5 -54 -81 -127 -168 -72 -87
-133 -160 -134 -162 -2 -1 -31 6 -66 18 -108 35 -192 44 -337 37 -106 -5 -131
-3 -124 7 32 42 187 229 219 264 29 30 50 43 79 48 22 4 45 8 50 11 6 2 75 2
155 0 113 -3 160 -9 212 -25z m-1739 -7 c24 -4 50 -19 73 -43 53 -53 236 -282
230 -288 -2 -2 -51 0 -108 5 -122 12 -238 3 -344 -29 -67 -20 -76 -21 -87 -6
-6 8 -65 81 -129 160 -65 79 -118 149 -118 155 0 13 51 30 144 48 70 13 255
12 339 -2z m2261 -508 c30 -61 71 -146 90 -188 19 -43 39 -78 43 -78 5 0 69
72 143 160 73 88 137 157 141 153 4 -5 26 -50 49 -102 53 -122 148 -313 163
-328 9 -9 37 19 119 120 59 73 122 147 140 166 l32 34 36 -44 c59 -74 179
-189 236 -225 30 -19 54 -39 54 -45 0 -6 -59 -83 -131 -171 -80 -97 -128 -163
-122 -169 18 -18 170 -50 248 -52 44 -1 126 2 183 6 l104 9 -141 -170 -140
-169 -53 -7 c-123 -15 -257 -18 -323 -8 -82 13 -175 40 -175 50 0 4 53 70 116
147 64 77 125 152 135 167 l20 27 -63 42 c-77 52 -164 133 -219 205 -23 30
-45 54 -50 54 -4 0 -49 -48 -100 -107 -149 -174 -180 -204 -197 -191 -16 14
-101 181 -162 321 -24 53 -46 97 -50 97 -4 0 -65 -67 -135 -150 -70 -82 -130
-150 -133 -150 -4 0 -56 100 -115 221 -93 189 -106 223 -95 237 7 9 67 82 132
161 l119 144 23 -28 c12 -16 47 -78 78 -139z m-2973 2 c63 -77 119 -149 126
-158 11 -15 -4 -50 -96 -231 -59 -117 -112 -214 -118 -216 -5 -2 -66 64 -134
146 -68 83 -127 150 -130 151 -3 0 -37 -66 -74 -147 -73 -160 -140 -283 -155
-283 -5 0 -55 55 -111 123 -56 67 -118 138 -137 159 l-34 36 -31 -36 c-74 -88
-157 -167 -224 -213 -40 -27 -73 -53 -73 -58 0 -4 59 -81 130 -170 72 -89 130
-166 130 -171 0 -4 -40 -18 -89 -29 -101 -24 -223 -27 -366 -9 l-94 11 -135
168 c-75 92 -136 170 -136 172 0 2 30 0 68 -5 130 -17 290 -12 377 11 43 12
82 25 86 29 4 4 -53 82 -126 173 -150 187 -145 167 -55 223 25 16 93 78 152
138 93 95 110 109 123 98 9 -7 70 -81 137 -163 l121 -150 20 24 c19 22 153
291 192 384 l16 40 27 -31 c15 -16 78 -93 141 -169 l114 -139 82 171 c79 163
137 263 154 263 4 0 59 -64 122 -142z m3504 -955 c31 -26 74 -58 96 -70 55
-29 54 -28 34 -60 -36 -54 -214 -268 -234 -280 -34 -21 -53 -15 -126 40 -66
50 -225 221 -225 243 0 5 61 83 136 172 l135 163 64 -80 c36 -44 90 -101 120
-128z m-3922 2 l115 -140 -32 -40 c-99 -126 -250 -255 -298 -255 -10 0 -39 21
-63 48 -50 53 -215 263 -215 273 0 4 24 21 54 37 66 38 159 123 228 209 l51
65 22 -29 c13 -15 74 -91 138 -168z"/>
<path d="M675 2923 c-133 -3 -152 -5 -166 -22 -12 -15 -39 -22 -115 -31 -176
-21 -180 -28 -16 -29 86 -1 152 -5 152 -10 0 -5 8 -12 18 -14 12 -3 10 -5 -8
-7 -21 -2 -20 -4 10 -10 l35 -7 -40 -2 c-36 -1 -40 -4 -40 -26 0 -24 3 -25 60
-26 99 -2 134 -16 43 -18 -45 0 -78 -5 -78 -11 0 -5 12 -10 28 -11 33 -1 -90
-39 -128 -39 -20 0 -22 -2 -10 -10 20 -13 83 -13 75 0 -4 6 6 10 23 10 17 0
32 -6 36 -15 3 -10 21 -16 53 -17 29 -1 14 -4 -40 -7 -48 -3 -86 -10 -85 -14
2 -5 -8 -14 -21 -22 -24 -12 -24 -13 17 -20 44 -7 58 -25 20 -25 -13 0 -34 -3
-47 -7 -22 -6 -21 -8 20 -29 l44 -23 -37 -1 c-27 0 -36 -4 -32 -14 3 -8 -4
-17 -18 -21 -19 -7 -14 -9 27 -15 44 -6 46 -7 14 -8 -22 -1 -39 -8 -43 -17 -4
-12 -27 -15 -108 -16 -85 -1 -95 -3 -58 -10 25 -4 79 -8 120 -9 41 -1 95 -5
120 -9 l45 -7 -55 -11 -55 -11 60 -2 60 -2 -55 -9 c-30 -4 -70 -5 -89 -2 -24
4 -32 2 -27 -6 4 -6 28 -11 54 -11 26 0 53 -4 61 -9 8 -6 -35 -12 -115 -16
-130 -8 -241 -21 -194 -24 l25 -2 -25 -14 -25 -14 30 -1 c23 0 27 -2 16 -12
-10 -11 11 -15 106 -24 l118 -11 -100 -2 c-115 -3 -105 -19 12 -20 76 -1 106
-8 97 -22 -3 -5 16 -10 43 -10 38 -2 42 -3 18 -7 -29 -6 -29 -6 10 -12 l40 -7
-37 -2 c-21 0 -38 -5 -38 -11 0 -5 -17 -11 -37 -11 -38 -1 -38 -1 -8 -9 27 -7
24 -8 -20 -10 l-50 -2 35 -13 35 -13 -50 -3 -50 -4 35 -17 c22 -11 28 -18 17
-18 -24 0 -16 -24 9 -28 42 -8 37 -22 -8 -22 -28 0 -50 -6 -58 -15 -10 -12 -6
-13 23 -8 19 3 43 1 52 -4 14 -8 6 -12 -36 -17 -53 -7 -53 -8 -29 -21 15 -9
19 -14 10 -15 -13 0 -13 -1 0 -10 13 -8 12 -10 -2 -10 -35 0 -17 -20 23 -26
27 -5 36 -10 27 -15 -9 -6 -7 -9 9 -9 12 0 25 -4 28 -10 4 -6 -12 -10 -40 -10
-28 0 -44 -4 -40 -10 4 -6 -9 -10 -32 -10 -36 -1 -37 -2 -19 -15 14 -10 48
-15 110 -16 l91 -2 -87 -10 c-49 -5 -88 -13 -88 -18 0 -5 11 -9 24 -9 14 0 28
-5 31 -10 4 -6 -11 -10 -37 -10 -46 0 -92 -18 -53 -21 36 -2 -37 -17 -92 -18
-29 0 -53 -5 -53 -11 0 -6 51 -10 133 -11 83 0 125 -4 112 -9 -11 -5 -36 -9
-55 -10 -28 -1 -31 -3 -15 -9 14 -6 -6 -11 -63 -16 -46 -4 -96 -11 -110 -15
-26 -7 -26 -8 12 -15 21 -4 76 -5 122 -2 103 7 113 -8 11 -17 -39 -3 -85 -10
-102 -15 -25 -7 -17 -9 50 -15 91 -8 125 -18 83 -24 -16 -2 -28 -7 -28 -12 0
-5 -8 -11 -18 -13 -9 -3 3 -6 28 -7 25 -2 35 -5 23 -7 -13 -2 -23 -9 -23 -14
0 -5 -15 -9 -32 -10 l-33 -1 40 -12 40 -13 -40 -10 c-29 -8 -33 -11 -16 -12
13 -1 21 -4 18 -8 -4 -3 -2 -12 4 -20 9 -10 6 -13 -15 -13 -14 0 -26 -4 -26
-10 0 -5 9 -10 20 -10 12 0 35 -8 53 -17 l32 -17 -25 -7 c-14 -4 -38 -8 -55
-8 -23 -1 -27 -3 -15 -11 10 -6 11 -10 3 -10 -7 0 -13 -4 -13 -10 0 -5 26 -11
58 -11 l57 -1 -40 -10 c-22 -5 -60 -12 -85 -15 l-45 -6 35 -13 35 -12 -29 -1
c-16 -1 -26 -4 -22 -8 4 -5 60 -11 124 -14 l117 -5 -135 -3 c-86 -2 -128 -6
-115 -11 11 -5 34 -9 50 -9 42 -2 12 -20 -35 -22 l-35 -1 38 -8 c49 -9 54 -16
20 -24 -21 -6 -24 -9 -12 -17 12 -7 11 -9 -3 -9 -10 0 -18 -7 -18 -15 0 -12
14 -15 63 -17 60 -1 61 -1 17 -7 -36 -6 -40 -8 -20 -12 17 -3 5 -8 -37 -13
-54 -7 -61 -10 -48 -22 7 -8 29 -17 47 -21 32 -7 31 -7 -27 -19 -33 -7 -73
-14 -90 -15 -16 0 10 -9 60 -19 50 -10 92 -19 95 -20 3 -1 -26 -8 -65 -14 -70
-12 -70 -12 -30 -19 22 -4 54 -12 71 -17 17 -6 117 -10 222 -10 191 0 192 0
197 23 5 21 155 944 155 953 0 2 84 3 188 3 103 -1 174 -4 157 -6 -128 -15
-217 -39 -196 -52 5 -4 11 -13 13 -21 2 -8 14 -20 28 -27 25 -11 25 -11 -10
-13 -30 0 -33 -3 -19 -13 9 -7 14 -18 12 -24 -3 -9 9 -13 39 -14 l43 -1 -38
-12 c-39 -12 -72 -46 -44 -46 7 0 14 -7 14 -15 0 -8 -6 -15 -14 -15 -7 0 -13
-4 -13 -10 0 -5 10 -10 21 -10 18 0 19 -2 9 -15 -7 -8 -21 -15 -31 -15 -31 0
-22 -17 14 -25 24 -6 28 -9 13 -12 -11 -3 -26 -11 -33 -18 -14 -15 -18 -29 -5
-22 4 3 25 1 47 -3 39 -8 39 -8 -17 -9 -54 -1 -76 -10 -60 -25 4 -4 7 -13 7
-19 0 -7 14 -15 30 -18 23 -5 25 -7 8 -8 -21 -1 -28 -10 -20 -27 1 -3 -9 -12
-23 -19 l-25 -14 28 -1 c15 0 27 -4 27 -10 0 -5 -5 -10 -11 -10 -6 0 -17 -7
-25 -15 -14 -13 -13 -15 3 -15 14 -1 13 -3 -6 -14 -23 -13 -23 -14 -5 -19 13
-3 10 -5 -11 -7 -26 -1 -27 -3 -10 -10 17 -7 14 -9 -15 -10 -30 -2 -27 -4 19
-11 79 -13 75 -19 -13 -19 -49 0 -75 -4 -71 -10 3 -5 18 -10 33 -10 15 0 38
-3 52 -7 l25 -7 -30 -7 c-23 -5 -17 -7 30 -9 33 -1 71 -6 85 -11 15 -5 -15 -6
-77 -3 -77 5 -103 3 -103 -6 0 -6 9 -14 20 -17 11 -3 20 -9 20 -14 0 -4 21
-11 46 -15 48 -7 44 -23 -6 -25 l-25 -1 25 -7 c24 -7 24 -8 -10 -16 -19 -5
-39 -9 -45 -9 -16 -1 -18 -38 -3 -47 11 -7 10 -11 -2 -19 -12 -8 -11 -10 8
-10 19 0 21 -3 12 -20 -19 -35 15 -41 242 -38 l212 3 68 410 c70 427 75 474
57 540 -16 56 -90 128 -156 151 -29 10 -53 22 -53 25 0 4 24 13 53 19 67 16
135 51 169 87 81 85 145 354 136 576 -3 94 -6 109 -38 173 -58 114 -132 155
-315 174 -111 11 -381 17 -580 13z m420 -573 c3 -5 15 -10 26 -10 20 0 26 -15
9 -25 -16 -10 -12 -19 18 -37 24 -16 25 -17 6 -18 -17 0 -21 -7 -22 -42 -1
-23 -7 -47 -12 -52 -7 -7 -3 -14 12 -23 20 -11 15 -13 -44 -11 -37 1 -70 -1
-73 -4 -4 -3 20 -12 52 -19 95 -20 95 -28 -2 -30 -89 -1 -89 -1 -50 -14 l40
-13 -36 -1 c-55 -1 -54 -12 4 -40 28 -14 52 -33 52 -41 0 -8 13 -18 30 -21
l30 -7 -29 -1 c-21 -1 -27 -5 -22 -16 4 -10 -1 -15 -17 -16 -17 -1 -16 -3 8
-9 20 -5 -4 -8 -72 -9 -68 -1 -103 3 -103 10 0 16 70 432 75 447 5 15 111 17
120 2z"/>
<path d="M6384 2919 c16 -4 60 -11 98 -15 76 -7 102 -24 38 -24 -34 0 -41 -3
-36 -16 3 -9 6 -18 6 -20 0 -2 19 -5 43 -5 l42 -2 -45 -10 c-33 -7 -49 -16
-57 -33 -10 -22 -9 -24 13 -24 13 0 24 -4 24 -10 0 -5 -13 -10 -28 -10 -16 0
-32 -3 -35 -7 -12 -11 14 -33 39 -33 28 0 30 -6 7 -28 -15 -15 -14 -17 8 -23
14 -3 -18 -9 -76 -13 -157 -11 -191 -24 -70 -26 100 -2 218 -25 150 -30 -29
-2 -29 -2 -5 -9 24 -7 23 -8 -12 -14 -32 -7 -63 -37 -37 -37 6 0 7 -4 4 -10
-3 -5 2 -10 12 -10 12 -1 8 -5 -12 -14 l-30 -14 30 -13 30 -13 -42 -4 c-70 -5
-49 -31 25 -33 l37 0 -40 -16 c-82 -34 -73 -63 19 -63 69 0 86 -19 19 -21
l-48 -2 40 -6 c38 -7 37 -7 -30 -16 -54 -7 -64 -10 -45 -16 14 -4 21 -7 16 -8
-5 -1 -3 -8 4 -16 10 -13 9 -15 -11 -16 -15 -1 -8 -5 16 -9 l40 -7 -40 -2 -40
-2 30 -14 30 -13 -40 -2 c-35 -2 -31 -4 30 -15 l70 -12 -62 -2 c-34 0 -69 -4
-79 -8 -17 -6 -17 -7 0 -13 16 -5 17 -8 4 -21 -17 -17 -13 -39 8 -39 8 0 14
-4 14 -10 0 -5 -10 -10 -22 -10 -13 0 -29 -4 -37 -9 -10 -7 4 -12 48 -17 59
-6 69 -16 26 -27 -11 -3 3 -6 30 -7 43 -2 39 -4 -34 -11 -46 -5 -90 -14 -98
-20 -7 -6 -13 -10 -14 -8 0 2 -33 216 -73 474 l-72 470 -114 3 c-63 2 -212 0
-330 -4 -214 -8 -215 -8 -110 -16 58 -4 137 -12 175 -16 l70 -9 -56 -2 c-31 0
-58 -4 -62 -7 -11 -11 5 -34 23 -34 34 0 32 -20 -2 -21 -23 -1 -26 -3 -10 -6
33 -7 27 -23 -10 -24 -31 -1 -32 -1 -8 -9 24 -8 23 -8 -7 -9 -31 -1 -48 -20
-20 -22 6 0 3 -4 -8 -9 -18 -7 -18 -9 -3 -15 15 -6 14 -10 -10 -31 l-27 -23
30 -1 c28 -1 29 -2 11 -15 -17 -13 -15 -14 20 -20 59 -10 63 -13 17 -14 -41
-1 -58 -14 -30 -24 19 -7 -88 -25 -198 -34 l-100 -8 177 -5 c97 -3 180 -8 183
-12 4 -3 -22 -10 -57 -15 -62 -10 -62 -14 -3 -29 28 -8 27 -8 -20 -14 l-50 -5
35 -9 35 -10 -40 -12 c-33 -10 -36 -13 -15 -15 43 -3 -70 -17 -155 -19 -99 -2
-75 -14 46 -24 89 -8 116 -17 105 -34 -4 -7 8 -12 31 -15 36 -3 36 -4 -8 -5
-33 -2 -46 -6 -46 -17 0 -8 4 -15 8 -15 11 0 1 -44 -11 -48 -16 -6 -1 -22 21
-22 10 0 19 -4 19 -10 0 -5 -15 -10 -32 -10 -31 -1 -32 -1 -14 -15 11 -8 29
-15 40 -15 17 0 18 -2 6 -10 -8 -5 -10 -10 -5 -11 6 -1 -6 -5 -25 -9 l-35 -7
50 -13 50 -14 -33 -8 c-26 -7 -31 -12 -23 -22 12 -15 -1 -20 -89 -35 l-45 -8
61 -2 c33 0 64 -4 67 -8 9 -8 -47 -33 -77 -34 -11 0 2 -6 29 -13 l50 -12 -35
-8 c-19 -4 -80 -14 -135 -21 -86 -11 -92 -13 -45 -14 91 -2 163 -13 148 -22
-10 -7 -9 -9 5 -9 9 0 17 -4 17 -9 0 -5 -8 -12 -17 -14 -11 -3 -5 -5 11 -6 31
-1 26 -16 -7 -23 -10 -1 -17 -7 -17 -12 3 -18 -27 -26 -98 -26 -82 0 -89 -14
-12 -24 78 -10 103 -22 95 -46 -4 -13 -2 -20 7 -21 7 -1 2 -4 -12 -9 l-25 -7
30 -7 c58 -15 59 -19 7 -28 -51 -9 -63 -28 -19 -28 18 -1 16 -4 -13 -20 -19
-11 -33 -19 -30 -20 3 0 23 -7 45 -15 l40 -15 -55 6 c-30 3 -95 12 -145 19
-49 8 -91 13 -92 11 -2 -2 37 -36 87 -75 76 -60 94 -70 110 -61 21 11 160 2
160 -11 0 -4 12 -10 28 -12 15 -2 -18 -5 -72 -6 -105 -1 -120 -11 -33 -22 l52
-6 -61 -2 c-65 -1 -80 -12 -75 -54 2 -10 -6 -25 -16 -32 -17 -13 -15 -15 17
-22 l35 -7 -35 -6 c-49 -7 -53 -35 -6 -44 45 -9 46 -23 4 -29 -30 -4 -31 -5
-10 -12 12 -4 22 -11 22 -16 0 -5 9 -9 21 -9 11 0 17 -5 14 -10 -3 -5 -18 -10
-33 -10 -15 0 -34 -5 -42 -10 -11 -7 1 -10 40 -11 54 -1 54 -1 20 -11 -19 -5
-42 -16 -50 -24 -12 -12 -6 -14 50 -15 51 -1 59 -3 35 -9 -16 -4 -54 -8 -82
-9 -54 -1 -72 -17 -30 -25 12 -3 31 -7 42 -9 11 -3 -5 -6 -35 -7 -44 -2 -50
-4 -30 -10 14 -4 18 -9 10 -10 -8 -1 -4 -6 10 -10 17 -5 19 -8 8 -9 -28 -2
-21 -21 6 -21 44 0 37 -18 -9 -24 l-45 -7 21 -22 20 -22 -23 -3 c-13 -2 -29
-9 -36 -14 -13 -11 -13 -88 1 -88 5 0 5 -4 2 -10 -4 -7 69 -10 212 -10 l219 0
78 477 c42 263 79 479 81 481 2 2 11 -1 22 -7 10 -5 27 -13 38 -16 18 -7 18
-8 -7 -17 -31 -11 -37 -28 -10 -28 9 0 26 -7 36 -15 19 -14 19 -15 -6 -15 -15
0 -30 -4 -33 -10 -4 -6 38 -11 117 -12 120 -2 121 -2 38 -7 -61 -4 -81 -9 -70
-16 12 -8 9 -11 -15 -16 l-30 -7 35 -2 c31 -3 29 -4 -15 -10 -38 -5 -45 -8
-30 -14 11 -4 31 -13 44 -19 l23 -12 -23 -6 c-16 -5 -18 -7 -6 -8 28 -2 19
-21 -10 -21 -25 0 -26 0 -8 -20 10 -11 14 -20 10 -20 -5 0 0 -7 11 -15 11 -8
14 -15 7 -15 -7 0 -13 -7 -13 -15 0 -11 12 -15 50 -15 76 0 60 -20 -17 -21
-56 -1 -62 -3 -33 -9 19 -4 29 -8 23 -9 -21 -2 -15 -21 7 -21 11 0 20 -6 20
-14 0 -10 18 -18 53 -24 l52 -10 -65 -1 c-70 -1 -108 -15 -77 -27 14 -5 15 -9
6 -20 -10 -12 2 -14 72 -16 l84 -2 -70 -6 c-38 -4 -55 -7 -36 -8 46 -3 34 -12
-25 -20 -44 -7 -46 -8 -31 -24 25 -25 22 -28 -35 -29 -97 -2 -110 -15 -24 -22
44 -4 83 -12 86 -18 4 -5 18 -7 32 -4 15 4 29 2 32 -4 5 -7 -5 -11 -26 -12
l-33 -1 30 -8 c30 -8 30 -8 -7 -9 -44 -1 -51 -18 -10 -23 l27 -4 -30 -14 -30
-15 48 -3 c68 -5 58 -22 -14 -22 -70 0 -71 -14 -2 -25 l48 -8 -32 -11 c-40
-14 -52 -26 -27 -27 18 0 18 -1 -1 -9 -18 -8 -17 -9 8 -9 32 -1 37 -26 6 -34
-28 -8 -15 -27 19 -27 29 0 20 -15 -13 -23 -11 -3 82 -5 207 -6 l226 -1 6 27
c3 16 71 431 152 923 80 492 147 900 149 905 3 11 232 -13 300 -31 29 -8 29
-8 -20 -20 l-50 -12 70 -2 c39 -2 58 -5 43 -7 -31 -5 -38 -22 -10 -24 9 -1
-10 -7 -43 -14 l-60 -12 47 -8 c61 -9 53 -21 -20 -31 -55 -8 -56 -8 -22 -15
19 -3 26 -7 15 -8 -33 -2 4 -21 45 -22 l35 -1 -35 -9 c-19 -5 -44 -14 -55 -18
-11 -5 -31 -13 -45 -19 -22 -9 -19 -11 27 -11 28 -1 55 -5 58 -11 4 -6 -16
-10 -53 -10 -58 0 -60 -1 -71 -30 -9 -28 -8 -32 16 -41 43 -16 14 -30 -88 -39
-52 -5 -104 -10 -116 -10 -13 0 -23 -4 -23 -10 0 -6 63 -10 168 -11 159 -1
164 -2 112 -14 l-55 -13 40 -2 c40 -3 40 -3 6 -7 -19 -3 -40 -11 -48 -19 -13
-12 -10 -14 19 -15 33 0 33 0 8 -12 -25 -11 -25 -11 10 -16 l35 -4 -30 -7
c-30 -6 -29 -7 15 -17 l45 -11 -65 -1 c-49 -1 -61 -4 -50 -12 13 -9 13 -11 0
-17 -8 -3 11 -11 45 -17 l60 -11 -130 -9 c-121 -8 -126 -9 -75 -17 104 -15
121 -19 115 -29 -4 -5 14 -10 42 -10 l48 -2 -50 -7 c-27 -4 -63 -12 -79 -17
-27 -8 -28 -10 -12 -26 10 -9 27 -17 39 -17 12 0 29 -5 37 -10 11 -7 7 -10
-17 -10 -20 0 -41 -8 -53 -20 -13 -13 -33 -20 -59 -20 -33 0 -69 -8 -121 -27
-8 -3 12 -11 45 -17 52 -10 60 -14 57 -32 -2 -14 7 -25 30 -36 l33 -16 -25
-10 c-21 -9 -22 -11 -5 -12 17 0 17 -2 5 -10 -13 -9 -13 -10 0 -10 11 -1 10
-4 -4 -15 -19 -14 -18 -15 15 -16 l34 -1 -30 -8 c-16 -4 -24 -8 -17 -9 21 -2
3 -21 -21 -22 -21 0 -21 -1 -2 -9 11 -5 16 -10 10 -11 -5 -1 13 -5 40 -9 l50
-7 -49 -1 c-38 -2 -47 -5 -42 -17 3 -8 0 -15 -7 -15 -7 0 -3 -7 7 -15 19 -14
18 -15 -10 -15 l-29 -1 24 -13 25 -14 -31 -6 c-30 -7 -54 -47 -33 -54 16 -6
12 -22 -5 -22 -10 0 -15 -10 -15 -30 0 -22 7 -33 28 -44 15 -8 23 -16 17 -17
-5 -1 8 -5 30 -9 37 -7 36 -7 -21 -9 -60 -1 -61 -1 -61 -31 0 -16 6 -31 14
-34 7 -3 13 -14 13 -25 0 -11 10 -29 22 -41 l22 -20 -22 0 c-11 0 -24 -5 -27
-10 -3 -5 0 -10 7 -10 7 0 20 -5 28 -10 12 -8 12 -12 3 -18 -25 -16 13 -49 64
-56 63 -8 91 -26 43 -26 -19 0 -42 -5 -50 -10 -10 -7 6 -10 55 -10 39 0 77 -5
85 -10 11 -7 -2 -10 -42 -10 -55 0 -78 -13 -40 -23 16 -4 16 -5 0 -6 -33 -2
-7 -29 35 -36 54 -9 66 -17 41 -26 -15 -6 -14 -8 10 -8 16 -1 26 -4 23 -8 -4
-3 10 -13 30 -21 126 -48 282 -8 403 105 41 38 65 53 76 49 9 -4 14 -9 11 -13
-4 -3 -2 -12 4 -20 9 -10 8 -13 -2 -14 -8 -1 24 -7 71 -14 l85 -12 -80 -2 -80
-3 55 -16 c30 -10 65 -23 77 -30 13 -7 57 -12 107 -12 84 0 84 0 90 27 10 47
176 1057 176 1071 0 9 -55 12 -242 12 -251 0 -351 -6 -342 -21 3 -5 -2 -9 -10
-9 -28 0 -18 -38 12 -48 26 -9 27 -9 5 -16 -13 -4 -24 -13 -25 -19 0 -7 -2
-17 -2 -23 -1 -6 -7 -19 -15 -28 -12 -14 -11 -16 5 -16 18 -1 18 -1 2 -14 -27
-20 -22 -25 30 -29 l47 -3 -54 -2 c-53 -2 -61 -14 -16 -25 15 -4 13 -5 -7 -6
-16 0 -28 -5 -28 -10 0 -5 -3 -16 -6 -25 -5 -14 5 -16 77 -16 47 0 78 -4 71
-8 -9 -6 1 -13 30 -22 24 -7 36 -15 28 -16 -8 -2 -32 -5 -52 -9 -26 -4 -35
-10 -32 -19 3 -9 -4 -17 -18 -22 -22 -8 -22 -8 7 -14 26 -6 28 -8 10 -14 -52
-19 -73 -46 -36 -46 28 0 37 -20 9 -21 -18 -1 -19 -2 -5 -6 18 -4 17 -6 -3
-20 -20 -14 -20 -16 -3 -29 17 -12 16 -13 -7 -14 -20 0 -22 -2 -10 -10 13 -9
13 -11 0 -19 -12 -9 -12 -11 3 -17 9 -3 17 -12 17 -20 0 -9 12 -14 38 -15 20
0 55 -4 77 -8 38 -8 37 -9 -25 -11 -72 -3 -146 -17 -100 -19 32 -2 65 -21 36
-21 -10 0 -36 -5 -57 -12 -38 -11 -38 -11 -19 -28 20 -17 20 -18 -6 -35 -16
-10 -49 -17 -85 -18 -80 -3 -104 20 -102 95 2 75 199 1260 217 1301 28 68 87
90 187 70 25 -5 29 -8 15 -13 -15 -5 -10 -9 20 -22 22 -9 47 -19 57 -22 32
-10 7 -26 -41 -27 -42 0 -44 -1 -22 -10 l25 -11 -35 -18 -35 -18 25 -10 c14
-6 39 -15 55 -21 l30 -9 -32 -1 c-17 -1 -40 -4 -50 -8 -16 -6 -15 -8 7 -14 20
-6 17 -7 -16 -8 -41 -1 -41 -1 -35 -33 l7 -33 74 -5 c86 -6 72 -20 -19 -20
-43 0 -62 -5 -74 -18 -21 -23 -13 -32 27 -33 26 0 28 -2 11 -9 -11 -5 -14 -9
-7 -9 25 -2 11 -21 -15 -21 -21 0 -24 -3 -14 -9 11 -7 9 -10 -10 -13 -13 -1
-24 -10 -24 -18 0 -13 36 -15 256 -18 l257 -2 11 63 c25 145 33 236 29 329 -4
88 -9 106 -42 172 -53 108 -130 169 -266 211 -65 20 -352 34 -335 17 6 -6 26
-12 45 -15 19 -2 4 -5 -35 -6 -49 -1 -66 -4 -55 -11 10 -6 -47 -10 -170 -11
-204 -1 -205 -10 -5 -29 69 -7 128 -17 132 -23 4 -7 -18 -8 -67 -3 -65 6 -78
4 -128 -20 -55 -26 -61 -27 -182 -21 -149 7 -122 -6 51 -23 136 -14 185 -29
104 -31 -51 -1 -118 -16 -82 -18 10 -1 25 -8 33 -16 14 -13 13 -15 -7 -15 -12
0 -30 -6 -38 -14 -17 -14 -321 -32 -321 -18 0 4 9 59 20 122 11 63 20 122 20
132 0 13 -16 17 -102 22 -190 10 -464 14 -434 5z"/>
<path d="M4900 2910 c8 -5 25 -10 38 -10 36 0 25 -17 -15 -24 -21 -3 -105 -6
-188 -6 -180 0 -178 -15 3 -25 69 -4 136 -10 149 -14 l24 -6 -33 -32 c-29 -28
-43 -33 -108 -40 l-75 -7 65 -8 c36 -4 117 -11 180 -16 l115 -8 -101 -8 c-92
-7 -101 -10 -97 -26 3 -11 15 -21 27 -23 16 -3 14 -5 -8 -6 -23 -1 -26 -4 -17
-15 9 -11 7 -15 -11 -21 -21 -7 -20 -8 12 -14 l35 -7 -30 -9 -30 -9 35 -9 c27
-8 30 -11 15 -14 -46 -9 -49 -12 -30 -33 16 -18 16 -19 -21 -22 l-37 -3 44
-22 44 -23 -92 0 c-51 0 -93 -4 -93 -8 0 -5 55 -17 123 -28 95 -15 114 -20 87
-25 -50 -7 -101 -29 -94 -40 3 -5 0 -9 -7 -9 -8 0 -8 -4 1 -15 7 -8 22 -15 34
-15 11 0 28 -5 36 -10 11 -7 6 -10 -21 -10 -63 0 -101 -11 -89 -25 12 -14 -19
-28 -135 -63 -104 -31 -65 -52 85 -46 52 2 89 2 83 -2 -20 -9 -15 -24 7 -24
11 0 20 -4 20 -10 0 -5 -19 -10 -42 -10 -40 -1 -42 -2 -24 -15 19 -14 19 -15
-8 -15 -24 0 -27 -2 -16 -15 10 -12 9 -16 -5 -21 -13 -5 -15 -14 -11 -37 8
-40 20 -47 86 -48 64 -1 58 -5 -25 -15 -56 -7 -58 -8 -25 -14 l35 -7 -35 -8
-35 -9 45 -12 45 -12 -41 -1 c-29 -1 -47 -8 -63 -25 l-23 -24 21 -7 c28 -9 26
-23 -4 -37 -22 -10 -23 -12 -8 -23 15 -11 15 -12 -1 -18 -23 -9 -20 -26 7 -37
13 -5 16 -9 7 -10 -9 -1 -4 -6 10 -12 l25 -10 -30 -9 c-17 -5 -54 -5 -85 0
-30 5 -56 8 -58 6 -1 -1 25 -12 58 -24 51 -19 60 -26 60 -47 0 -13 -4 -24 -10
-24 -5 0 -10 -7 -10 -15 0 -8 -6 -24 -12 -35 -11 -16 -9 -22 7 -34 19 -14 16
-15 -35 -17 -61 -1 -54 -4 35 -15 59 -7 59 -7 29 -18 -32 -11 -30 -26 6 -38 9
-3 -4 -11 -30 -20 -44 -15 -45 -16 -19 -26 14 -6 47 -13 72 -17 70 -11 56 -25
-24 -25 -44 0 -68 -4 -64 -10 3 -5 34 -10 68 -10 34 0 79 -3 99 -6 32 -6 36
-9 28 -24 -5 -10 -26 -28 -46 -40 -29 -19 -44 -21 -84 -16 -54 7 -103 -1 -94
-15 3 -5 20 -10 37 -10 30 -2 31 -2 5 -6 -31 -5 -38 -22 -10 -24 9 -1 4 -5
-13 -9 -21 -5 -6 -8 55 -9 118 -2 134 -17 24 -23 -82 -4 -134 -20 -134 -40 0
-5 17 -8 38 -9 l37 -1 -35 -13 -35 -13 35 -2 35 -2 -38 -8 c-20 -4 -40 -9 -42
-12 -11 -11 8 -38 29 -43 11 -2 39 -8 61 -13 l40 -10 -50 -1 c-27 -1 -60 -4
-73 -7 -21 -6 -22 -8 -7 -24 15 -16 14 -18 -7 -24 -22 -6 -21 -7 12 -22 l35
-16 -34 -12 c-47 -17 -50 -33 -9 -51 33 -14 33 -14 6 -15 -16 0 -28 -4 -28 -8
0 -11 183 -22 370 -22 l145 0 174 1063 c95 584 175 1072 178 1085 l5 22 -263
0 c-174 0 -259 -4 -249 -10z"/>
<path d="M2253 2903 c-39 -7 -25 -21 30 -29 l52 -8 -70 -8 c-250 -28 -307 -36
-259 -37 119 -3 267 -15 239 -21 -16 -3 -31 -11 -31 -18 -1 -6 -2 -16 -3 -22
0 -5 -9 -10 -18 -10 -16 -1 -16 -2 1 -15 20 -15 20 -15 -24 -28 -10 -3 -5 -7
13 -12 15 -4 27 -10 27 -14 0 -4 -64 -15 -142 -25 -79 -9 -163 -20 -188 -24
l-45 -7 65 -6 c36 -4 110 -8 165 -9 103 -2 190 -17 113 -19 -37 -1 -55 -21
-20 -21 15 -1 15 -2 -2 -15 -11 -8 -14 -15 -8 -15 19 0 14 -20 -5 -21 -10 0
-2 -6 17 -13 l35 -13 -42 -7 c-51 -9 -54 -16 -12 -35 16 -7 29 -15 27 -17 -2
-2 -71 -8 -153 -14 -132 -9 -234 -25 -224 -35 2 -2 58 -8 124 -14 66 -7 136
-15 155 -18 33 -6 34 -6 10 -13 l-25 -7 27 -7 c17 -5 25 -13 21 -22 -3 -8 -1
-14 4 -14 23 0 7 -29 -19 -34 -31 -6 -39 -36 -10 -37 9 0 1 -6 -18 -13 l-35
-13 29 -9 29 -10 -42 -13 c-36 -10 -41 -15 -30 -27 23 -28 -10 -45 -102 -50
-173 -9 -171 -29 3 -39 116 -7 121 -9 88 -21 -24 -8 -29 -13 -15 -14 20 -1 20
-1 1 -15 -11 -8 -16 -15 -11 -15 4 0 0 -9 -10 -20 -18 -20 -17 -20 16 -21 19
0 27 -3 19 -6 -8 -3 -26 -10 -40 -15 -23 -9 -24 -10 -7 -23 17 -12 17 -13 0
-20 -15 -7 -13 -9 12 -15 29 -7 29 -8 -8 -9 -21 0 -36 -5 -33 -10 9 -14 -13
-19 -123 -26 -56 -4 -104 -12 -108 -18 -4 -6 45 -7 143 -3 104 5 144 4 134 -3
-8 -6 -23 -11 -34 -11 -15 0 -16 -3 -6 -15 9 -10 9 -15 1 -15 -6 0 -11 -7 -11
-15 0 -8 -9 -15 -20 -15 -11 0 -20 -4 -20 -9 0 -11 24 -21 58 -22 17 -1 21 -3
10 -6 -10 -2 -18 -9 -18 -14 0 -5 -13 -9 -30 -9 -25 0 -29 -4 -27 -22 1 -13 9
-26 17 -30 10 -4 6 -7 -12 -7 -27 -1 -41 -21 -15 -21 7 -1 5 -6 -5 -14 -10 -7
-18 -16 -18 -20 0 -3 8 -6 18 -6 14 0 15 -2 2 -10 -8 -5 -37 -10 -65 -11 -27
-1 -63 -4 -79 -8 l-30 -6 30 -14 29 -14 -30 -8 c-22 -6 -13 -7 30 -5 70 4 125
-3 125 -15 0 -5 -11 -9 -24 -9 -19 0 -24 -5 -21 -18 3 -15 -12 -22 -91 -42
-100 -25 -127 -40 -72 -40 18 0 52 -9 76 -20 42 -19 56 -40 26 -40 -13 0 -14
-3 -4 -15 6 -8 9 -23 5 -35 -4 -11 -2 -20 4 -20 6 0 11 -4 11 -10 0 -5 -10
-10 -22 -10 -29 0 -17 -11 24 -20 32 -8 32 -8 5 -9 -25 -1 -26 -3 -17 -21 9
-16 8 -20 -5 -20 -18 0 -186 -57 -194 -66 -3 -4 30 -4 74 -1 45 4 74 3 67 -2
-10 -6 -8 -10 10 -15 21 -6 20 -7 -17 -25 -22 -11 -33 -20 -24 -20 30 -2 31
-30 2 -37 -23 -6 -24 -8 -10 -19 10 -7 17 -15 17 -18 0 -10 -80 -37 -110 -37
-47 0 -45 -18 9 -70 43 -42 48 -51 34 -58 -10 -6 78 -12 251 -17 147 -4 269
-5 272 -2 3 2 23 74 46 158 22 85 45 171 50 192 l10 37 119 0 c106 0 152 -9
117 -23 -7 -3 5 -6 27 -8 31 -1 34 -3 13 -6 -16 -2 -28 -8 -28 -13 0 -4 -12
-11 -26 -14 -17 -5 -24 -12 -22 -24 2 -13 17 -18 58 -22 l55 -6 -40 -8 c-74
-14 -77 -16 -64 -32 6 -8 8 -14 3 -14 -4 0 1 -7 12 -15 14 -11 15 -14 4 -15
-8 0 -21 -9 -28 -20 -16 -26 4 -50 42 -50 14 0 27 -4 30 -9 3 -5 -31 -13 -77
-18 l-82 -8 34 -18 c19 -9 41 -17 50 -17 14 -1 13 -3 -2 -14 -21 -16 31 -21
346 -32 l177 -6 0 99 c0 54 9 537 20 1073 11 536 20 983 20 993 0 16 -24 17
-367 16 -203 -1 -378 -4 -390 -6z m325 -543 c15 -1 14 -3 -2 -15 -11 -9 -14
-15 -7 -15 9 0 8 -5 -3 -16 -21 -21 -21 -64 0 -64 12 0 14 -4 7 -12 -16 -20
-25 -68 -13 -68 5 0 10 -7 10 -15 0 -8 -8 -15 -17 -15 -11 0 -14 -3 -8 -8 14
-9 11 -70 -3 -84 -15 -15 -16 -65 -2 -73 8 -5 7 -11 -1 -21 -7 -8 -9 -29 -6
-48 3 -22 1 -37 -6 -40 -8 -3 -6 -8 5 -16 16 -10 16 -12 0 -39 -16 -28 -15
-31 2 -50 17 -19 17 -21 3 -21 -22 0 -22 -16 1 -29 15 -9 14 -10 -8 -11 -24
-1 -24 -1 -6 -15 19 -14 19 -15 1 -15 -17 0 -17 -1 0 -20 14 -16 15 -20 4 -20
-9 0 -16 -12 -17 -32 -2 -18 -5 -34 -7 -36 -2 -3 0 -13 6 -23 9 -17 6 -19 -34
-19 -24 0 -72 -3 -106 -6 -47 -5 -61 -4 -61 6 0 31 245 883 248 863 2 -13 11
-23 20 -23z"/>
<path d="M3950 2891 c0 -5 6 -11 13 -14 17 -6 -164 -25 -303 -32 -189 -10
-207 -23 -35 -25 163 -2 167 -16 5 -20 -63 -2 -85 -5 -65 -9 30 -7 -15 -14
-165 -24 -25 -2 -4 -4 47 -5 85 -2 127 -14 86 -25 -11 -3 -6 -6 12 -7 26 -2
23 -4 -15 -11 -25 -4 -73 -14 -107 -22 -35 -7 -63 -10 -63 -5 0 4 -7 8 -16 8
-21 0 20 -34 54 -45 15 -4 21 -12 18 -22 -3 -8 -6 -18 -6 -23 0 -5 -12 -13
-27 -18 -28 -10 -27 -10 15 -17 l42 -8 -21 -18 c-14 -12 -17 -19 -8 -19 10 0
9 -4 -4 -17 -9 -9 -56 -27 -104 -39 l-87 -22 60 -6 c32 -3 93 -8 134 -12 41
-4 69 -9 62 -11 -6 -3 -10 -9 -6 -14 3 -5 -19 -9 -48 -10 l-53 -1 45 -13 c43
-12 38 -13 -91 -14 -98 -1 -140 -5 -154 -15 -17 -12 -11 -15 60 -21 44 -4 107
-13 140 -20 l60 -13 -55 -2 c-51 -1 -53 -2 -31 -14 l23 -13 -23 -6 c-13 -4
-40 -7 -60 -7 -20 0 -58 -3 -85 -7 -70 -9 -30 -21 74 -22 53 -1 81 -5 77 -11
-3 -5 -15 -10 -26 -10 -12 0 -19 -5 -16 -12 2 -7 -3 -18 -12 -25 -22 -16 -3
-47 30 -50 13 -1 63 -5 112 -8 48 -4 87 -11 87 -16 0 -6 -17 -17 -37 -26 -35
-14 -44 -14 -110 2 -79 20 -89 19 -86 -7 2 -10 -2 -18 -8 -18 -6 0 -1 -9 12
-20 23 -18 23 -19 4 -20 -19 0 -19 -1 3 -18 l23 -18 -38 -18 c-33 -16 -35 -20
-19 -26 14 -5 16 -9 7 -14 -9 -6 -8 -11 4 -20 12 -9 -1 -10 -62 -8 -43 2 -89
-1 -103 -6 l-25 -10 26 -10 c14 -6 51 -13 82 -17 60 -8 92 -29 66 -46 -8 -5
-10 -9 -5 -9 6 0 1 -7 -10 -15 -11 -8 -14 -15 -6 -15 18 0 15 -30 -4 -30 -11
0 -13 -6 -9 -19 5 -16 0 -21 -27 -26 -126 -22 -126 -23 12 -26 74 -1 113 -4
86 -6 -29 -3 -62 -13 -80 -26 l-29 -21 34 -11 34 -12 -27 -6 c-18 -5 -25 -12
-22 -21 3 -8 1 -17 -5 -21 -21 -12 -10 -24 32 -33 l42 -10 -52 -1 -53 -1 22
-25 c15 -18 32 -25 57 -26 29 0 32 -2 16 -9 -11 -5 -32 -9 -47 -9 -27 -1 -41
-20 -15 -22 6 0 1 -5 -13 -11 -25 -11 -25 -11 10 -17 l35 -6 -32 -15 c-18 -8
-33 -18 -33 -22 0 -4 -27 -13 -60 -20 -33 -7 -55 -15 -48 -19 7 -4 55 -14 107
-23 99 -17 124 -25 75 -27 -16 0 -45 -7 -64 -14 l-35 -13 43 -1 c50 -1 57 -21
7 -21 -40 0 -43 -8 -15 -38 18 -19 18 -22 4 -30 -27 -15 -6 -32 41 -32 65 0
67 -20 3 -21 -29 -1 -42 -4 -28 -6 l24 -5 -24 -14 c-22 -12 -13 -14 95 -16
l120 -2 -108 -3 c-66 -2 -105 -7 -102 -13 3 -6 15 -10 26 -10 30 0 12 -20 -19
-21 -19 -1 -14 -4 17 -10 54 -10 64 -19 25 -20 -22 -1 -17 -4 21 -13 44 -10
47 -13 25 -19 -14 -4 -36 -7 -50 -7 -54 -1 5 -20 65 -21 33 -1 74 -5 90 -9 23
-6 12 -8 -45 -10 -81 -2 -66 -17 20 -19 67 -2 88 -20 25 -22 l-50 -1 40 -11
c22 -7 50 -18 63 -25 21 -12 99 -24 247 -38 84 -8 233 24 332 72 142 68 251
202 307 379 23 72 76 342 76 387 0 17 -16 18 -232 17 -128 -1 -225 -3 -215 -6
27 -7 20 -23 -10 -24 -16 0 -37 -4 -48 -8 -19 -8 -19 -8 3 -15 26 -9 29 -33 5
-39 -13 -2 -9 -8 17 -19 l35 -16 -32 -7 c-18 -4 -31 -11 -28 -15 3 -4 -5 -11
-18 -16 -16 -5 -6 -9 43 -14 36 -4 58 -7 50 -8 -26 -3 -84 -22 -99 -31 -22
-14 4 -41 40 -41 16 0 29 -5 29 -11 0 -6 -9 -8 -20 -4 -13 4 -29 -1 -44 -12
-22 -17 -22 -20 -8 -31 15 -9 13 -11 -10 -11 -61 -2 -11 -43 67 -56 l50 -8
-65 -13 -65 -12 45 -2 c44 -3 43 -4 -15 -9 -46 -5 -61 -10 -63 -23 -3 -15 4
-18 37 -18 57 0 51 -18 -9 -26 -27 -4 -48 -10 -45 -14 5 -8 -43 -20 -82 -20
-40 0 -81 27 -88 58 -9 42 201 1318 223 1357 27 46 76 67 141 60 30 -4 64 -11
75 -15 19 -8 19 -9 -6 -9 -15 -1 -29 -5 -33 -10 -10 -17 31 -31 92 -32 l58 -1
-45 -10 c-25 -5 -51 -13 -59 -17 -21 -10 -23 -41 -3 -41 10 0 1 -8 -18 -18
l-35 -17 65 -6 65 -6 -55 -1 c-30 -1 -62 -7 -70 -12 -13 -9 -12 -12 4 -25 11
-8 34 -15 50 -15 23 0 27 -3 16 -10 -10 -6 2 -10 40 -13 54 -3 53 -3 -15 -6
-84 -3 -135 -19 -65 -20 70 -2 87 -20 20 -22 -43 -1 -49 -3 -30 -9 21 -7 22
-8 5 -9 -11 -1 -29 -8 -39 -16 -19 -14 -17 -15 20 -15 21 0 46 -5 54 -10 11
-7 5 -10 -25 -10 -30 0 -36 -3 -25 -10 8 -5 27 -10 42 -10 15 0 30 -4 33 -10
4 -6 -9 -10 -33 -10 -23 0 -45 -6 -52 -15 -7 -8 -20 -15 -29 -16 -9 0 0 -5 19
-11 53 -15 56 -24 8 -34 l-43 -8 63 -4 c34 -1 62 -7 62 -12 0 -6 -8 -10 -17
-10 -10 0 -41 -6 -71 -12 -44 -11 -52 -16 -50 -33 3 -19 11 -20 250 -23 228
-2 247 -1 252 15 3 10 17 95 33 188 34 208 37 371 9 455 -46 139 -139 221
-284 251 -34 7 -62 17 -62 21 0 4 -52 8 -115 8 -63 0 -115 -4 -115 -9z"/>
<path d="M5568 2073 c7 -3 16 -2 19 1 4 3 -2 6 -13 5 -11 0 -14 -3 -6 -6z"/>
<path d="M5528 2063 c7 -3 16 -2 19 1 4 3 -2 6 -13 5 -11 0 -14 -3 -6 -6z"/>
<path d="M3180 2012 c0 -11 69 -26 78 -18 8 9 1 13 -40 20 -22 4 -38 3 -38 -2z"/>
<path d="M4617 1249 c7 -7 15 -10 18 -7 3 3 -2 9 -12 12 -14 6 -15 5 -6 -5z"/>
<path d="M1582 1239 c6 -17 70 -31 128 -27 l45 3 -40 13 c-22 7 -62 15 -89 19
-39 5 -48 3 -44 -8z"/>
</g>
</svg>
